<?xml version="1.0" standalone="no"?>
<!DOCTYPE svg PUBLIC "-//W3C//DTD SVG 20010904//EN"
 "http://www.w3.org/TR/2001/REC-SVG-20010904/DTD/svg10.dtd">
<svg version="1.0" xmlns="http://www.w3.org/2000/svg"
 width="2000.000000pt" height="8372.000000pt" viewBox="0 0 2000.000000 8372.000000"
 preserveAspectRatio="xMidYMid meet">

<g transform="translate(0.000000,8372.000000) scale(0.100000,-0.100000)"
fill="#000000" stroke="none">
<path d="M9215 59970 c-1036 -43 -1909 -144 -2720 -315 -1840 -388 -3219
-1119 -4150 -2202 -233 -270 -470 -603 -661 -928 -98 -168 -305 -572 -379
-740 -596 -1365 -915 -2999 -985 -5055 -29 -839 -135 -7631 -180 -11520 -66
-5719 -66 -12186 0 -18075 46 -4033 153 -11131 180 -11920 102 -2957 743
-5132 1943 -6600 505 -617 1140 -1121 1913 -1517 1114 -571 2463 -915 4144
-1057 484 -41 564 -43 1820 -39 1330 5 1296 3 1955 73 1962 208 3536 745 4660
1590 245 184 398 317 626 545 308 308 540 593 782 960 893 1358 1403 3219
1542 5625 25 434 41 1273 85 4490 132 9600 155 18313 70 26075 -5 498 -15
1393 -20 1990 -33 3475 -103 9183 -115 9383 -3 45 -10 181 -15 302 -79 1679
-367 3183 -837 4369 -790 1998 -2094 3228 -4163 3928 -1024 346 -2122 538
-3577 624 -300 18 -1596 27 -1918 14z m1670 -810 c1594 -77 2864 -336 3950
-805 158 -68 498 -239 654 -329 780 -450 1370 -1002 1843 -1726 808 -1235
1276 -2970 1392 -5170 25 -463 26 -498 61 -2570 67 -3928 101 -6802 137
-11630 17 -2269 17 -11550 0 -13415 -37 -4030 -162 -13919 -182 -14405 -85
-2011 -427 -3584 -1050 -4819 -136 -270 -221 -418 -368 -641 -556 -846 -1218
-1431 -2152 -1898 -1152 -577 -2563 -886 -4395 -962 -499 -21 -1409 -11 -1910
20 -2164 135 -3799 633 -4946 1506 -1491 1134 -2353 3173 -2574 6084 -39 513
-47 790 -85 2685 -60 3028 -88 4670 -130 7630 -72 5074 -76 15358 -10 21175
35 3010 147 9773 180 10780 86 2647 626 4608 1642 5965 515 687 1134 1193
1953 1595 1162 570 2636 877 4515 940 307 10 1183 4 1475 -10z"/>
<path d="M9610 58340 c-2678 -61 -4566 -727 -5672 -2003 -990 -1144 -1532
-2927 -1648 -5422 -36 -771 -135 -6617 -170 -9955 -6 -536 -15 -1375 -20
-1865 -65 -5804 -65 -11702 0 -17675 5 -503 14 -1374 20 -1935 24 -2465 55
-4628 110 -7695 31 -1701 49 -2553 60 -2795 119 -2528 685 -4311 1736 -5477
705 -781 1836 -1354 3239 -1642 1151 -236 2625 -311 4020 -206 2233 169 3855
838 4806 1980 891 1071 1419 2593 1608 4640 62 663 67 838 106 3820 144 10944
150 11628 150 17300 0 4312 -5 5441 -35 8310 -6 509 -17 1623 -25 2475 -41
4275 -115 10050 -135 10530 -104 2533 -641 4341 -1651 5560 -101 123 -422 444
-544 546 -1025 858 -2478 1342 -4430 1479 -409 28 -1038 40 -1525 30z m1005
-810 c1825 -73 3184 -465 4110 -1185 670 -522 1173 -1287 1525 -2322 305 -895
471 -1888 540 -3213 15 -301 141 -10014 160 -12395 66 -8228 25 -16886 -130
-27705 -23 -1615 -32 -1851 -96 -2490 -196 -1982 -763 -3453 -1666 -4326
-1012 -977 -2686 -1465 -5028 -1464 -1650 1 -2964 248 -3971 749 -616 306
-1115 710 -1491 1207 -798 1055 -1235 2663 -1318 4844 -27 717 -134 7688 -180
11720 -67 5933 -67 12575 0 18355 47 3981 152 10669 180 11405 57 1497 273
2706 657 3670 421 1057 1020 1781 1887 2279 893 514 2115 809 3611 870 283 12
926 12 1210 1z"/>
<path d="M9510 56683 c-1132 -49 -2021 -232 -2760 -568 -284 -129 -562 -298
-805 -491 -1056 -839 -1626 -2482 -1715 -4944 -23 -634 -125 -8009 -170
-12215 -95 -9061 -58 -16578 140 -27775 26 -1470 32 -1647 71 -2130 139 -1727
548 -2969 1251 -3805 106 -126 333 -344 468 -449 705 -548 1687 -880 2945
-995 760 -70 1616 -64 2339 14 1459 159 2536 626 3186 1381 815 946 1251 2390
1350 4464 16 334 75 5124 120 9620 6 569 15 1418 20 1885 84 7218 64 14555
-70 25370 -36 2869 -60 4495 -70 4715 -93 2017 -500 3445 -1247 4381 -756 946
-2034 1445 -3948 1539 -183 9 -925 11 -1105 3z m1230 -818 c1136 -82 1963
-339 2580 -803 140 -105 380 -343 476 -472 633 -846 970 -2145 1039 -3995 11
-304 79 -4693 110 -7120 92 -7212 111 -14707 55 -21650 -33 -4088 -138 -11828
-170 -12585 -75 -1753 -419 -3040 -1031 -3856 -95 -127 -306 -344 -434 -446
-593 -476 -1414 -746 -2555 -844 -253 -21 -1018 -30 -1305 -15 -1425 76 -2431
430 -3074 1081 -688 695 -1100 1969 -1201 3705 -5 99 -12 214 -15 255 -5 82
-33 1482 -65 3270 -57 3264 -100 6133 -130 8875 -6 512 -15 1324 -21 1805 -16
1384 -23 8513 -10 10625 26 4277 80 8734 171 14235 32 1943 49 2782 60 2985
84 1574 367 2693 875 3460 121 182 204 284 345 425 580 580 1451 924 2640
1044 131 14 396 31 605 40 177 8 853 -5 1055 -19z"/>
</g>
</svg>
